<?xml version="1.0" encoding="UTF-8" standalone="no"?>
<!-- Created with Inkscape (http://www.inkscape.org/) -->

<svg
   xmlns:dc="http://purl.org/dc/elements/1.1/"
   xmlns:cc="http://creativecommons.org/ns#"
   xmlns:rdf="http://www.w3.org/1999/02/22-rdf-syntax-ns#"
   xmlns:svg="http://www.w3.org/2000/svg"
   xmlns="http://www.w3.org/2000/svg"
   xmlns:sodipodi="http://sodipodi.sourceforge.net/DTD/sodipodi-0.dtd"
   xmlns:inkscape="http://www.inkscape.org/namespaces/inkscape"
   width="32mm"
   height="32mm"
   viewBox="0 0 32 32"
   version="1.1"
   id="svg40"
   inkscape:version="0.92.5 (2060ec1f9f, 2020-04-08)"
   sodipodi:docname="icon.svg">
  <defs
     id="defs34" />
  <sodipodi:namedview
     id="base"
     pagecolor="#ffffff"
     bordercolor="#666666"
     borderopacity="1.0"
     inkscape:pageopacity="0.0"
     inkscape:pageshadow="2"
     inkscape:zoom="1.979899"
     inkscape:cx="132.37911"
     inkscape:cy="87.055044"
     inkscape:document-units="mm"
     inkscape:current-layer="layer1"
     showgrid="false"
     inkscape:window-width="1920"
     inkscape:window-height="1141"
     inkscape:window-x="0"
     inkscape:window-y="0"
     inkscape:window-maximized="1" />
  <metadata
     id="metadata37">
    <rdf:RDF>
      <cc:Work
         rdf:about="">
        <dc:format>image/svg+xml</dc:format>
        <dc:type
           rdf:resource="http://purl.org/dc/dcmitype/StillImage" />
        <dc:title></dc:title>
      </cc:Work>
    </rdf:RDF>
  </metadata>
  <g
     inkscape:label="Layer 1"
     inkscape:groupmode="layer"
     id="layer1"
     transform="translate(0,-265)">
    <path
       inkscape:connector-curvature="0"
       style="fill:#ff0000;stroke-width:0.33919981"
       d="m 7.2127875,281.37707 c 0.2662609,-1.08167 1.0650436,-1.90543 2.0801633,-2.21329 1.8471852,-0.51588 9.2325982,-0.51588 9.2325982,-0.51588 0,0 7.385412,0 9.232598,0.51588 1.01512,0.28291 1.807246,1.13162 2.080164,2.21329 0.482598,1.94705 0.482598,5.98256 0.482598,5.98256 0,0 0,4.05715 -0.482598,5.98255 -0.299543,1.08169 -1.065044,1.9254 -2.100133,2.21329 -1.827217,0.51588 -9.212629,0.51588 -9.212629,0.51588 0,0 -7.385413,0 -9.2325982,-0.51588 C 8.2778311,295.27256 7.4857049,294.42387 7.1928179,293.3638 6.71022,291.41678 6.71022,287.38126 6.71022,287.38126 c 0,0 0.019638,-4.05714 0.5158805,-6.00251 z"
       id="path2" />
    <path
       style="stroke-width:0.03010912"
       inkscape:connector-curvature="0"
       d="m 8.296303,267.05873 c -6.0607643,1.71239 -7.2289843,8.06937 -6.3836059,11.39763 0.8487069,0.0544 1.5310007,0.18305 2.1184388,0.38275 -1.4977177,1.19818 0.2662609,4.50148 1.9087581,6.1706 0.031619,0.4826 0.1026771,0.9652 0.232978,1.46443 0.798783,3.1319 3.2500474,5.15048 5.493296,4.51812 0.565804,-0.15843 1.065044,-0.46596 1.481076,-0.88198 0.0057,-0.006 0.0067,-0.0167 0.01214,-0.0227 0.38275,-1.28138 0.416032,-2.86563 0.004,-4.48649 -0.432674,-1.72405 -1.281381,-3.14355 -2.298164,-4.04384 -0.682294,-0.59908 -1.4145117,-0.9652 -2.1617063,-1.0484 -1.2980218,-1.09834 -2.5561047,-2.22827 -3.38817,-3.54793 -0.3993916,-2.58107 1.8671549,-7.92792 5.0256743,-8.78994 3.145208,-0.84871 5.476656,2.87229 7.388742,5.35851 -0.199697,0.21632 -0.349468,0.48259 -0.465957,0.74886 -0.04377,0.10421 -0.07854,0.21633 -0.111663,0.33281 -0.216337,-0.007 -0.416032,0.006 -0.632369,0.0634 -1.822224,0.51588 -2.659281,3.46473 -1.863827,6.59496 0.798782,3.13022 2.920549,5.24367 4.742773,4.72945 1.431152,-0.39939 2.246576,-2.29983 2.155048,-4.60465 0.432675,-0.54916 0.449317,-1.75067 0.04842,-3.04869 0.183055,-0.21634 0.349468,-0.46595 0.449316,-0.73222 0.299544,-0.69893 0.349468,-1.531 0.12997,-2.37305 -0.216338,-0.84871 -0.665654,-1.54764 -1.248099,-2.00527 -0.582447,-0.44932 -1.331305,-0.66566 -2.080164,-0.44932 -0.02713,0.008 -0.05591,0.0146 -0.08304,0.0241 -0.07105,-1.78894 -0.549163,-3.2567 -1.198174,-4.69451 -3.20678,-1.87547 -5.373479,-2.15671 -9.2808576,-1.04841 z m 13.154954,10.45906 c -0.02713,0.0649 -0.0664,0.11782 -0.09818,0.18306 -0.682293,-1.66413 -1.810573,-2.72586 -2.591051,-2.45293 -0.332826,-0.24963 -0.665653,-0.43267 -1.01512,-0.54916 2.180012,-3.07366 4.801018,0.91527 3.702691,2.81903 z m -16.8814419,1.75233 c 0.1344617,-0.0333 0.2995434,-0.0241 0.5325218,0.0393 0.7987826,0.46596 1.347946,1.06504 1.85717,1.68077 -0.5824459,0.79878 -0.798783,1.64749 -0.865348,2.82903 -0.965196,-0.34947 -2.6027006,-4.28181 -1.514359,-4.54808 z M 16.430075,277.1833 c 0.232978,-0.0845 0.482598,-0.0241 0.715577,0.11949 0.232977,0.14345 0.465956,0.38274 0.665652,0.68229 0.432674,0.5658 0.815424,1.38123 1.114968,2.3431 0.299543,0.9652 0.416032,1.86216 0.399391,2.60269 -0.01149,0.36612 -0.03927,0.71558 -0.143448,0.98184 -0.104345,0.26627 -0.266261,0.4826 -0.499239,0.58245 -0.232979,0.0845 -0.482599,0.0241 -0.715576,-0.11949 -0.232979,-0.14345 -0.465957,-0.38274 -0.665653,-0.68229 -0.432675,-0.5658 -0.832066,-1.38123 -1.131609,-2.3381 -0.299543,-0.9652 -0.416033,-1.86216 -0.399392,-2.60271 0.01133,-0.3661 0.05591,-0.71557 0.16009,-0.98183 0.104176,-0.26626 0.26626,-0.4826 0.499239,-0.56581 z m -7.6533377,2.46292 c -0.2329781,0.0666 -0.4493152,0.16558 -0.665652,0.2829 1.0816849,-0.0785 2.1816757,0.34947 3.1069317,1.18153 1.114968,0.98184 2.015262,2.50951 2.477891,4.3334 0.299543,1.16489 0.38275,2.32978 0.266261,3.39149 0.582446,-1.28138 0.748858,-2.94884 0.316185,-4.65124 -0.798783,-3.1319 -3.271681,-5.1638 -5.5149297,-4.52977 z m 7.8480417,-1.83887 c -0.08754,0.0333 -0.164584,0.12098 -0.232979,0.2829 -0.06491,0.16642 -0.108673,0.41604 -0.117821,0.73222 -0.01964,0.61572 0.09369,1.46443 0.366109,2.34808 0.266262,0.88199 0.649012,1.64749 0.998479,2.12843 0.183055,0.23298 0.349467,0.38276 0.499239,0.48259 0.145112,0.0907 0.24962,0.10569 0.332827,0.0741 0.08754,-0.0333 0.164582,-0.12098 0.232978,-0.28289 0.06506,-0.16642 0.113327,-0.3994 0.12248,-0.71558 0.01964,-0.61573 -0.114826,-1.48108 -0.382751,-2.35974 -0.26626,-0.88199 -0.632369,-1.61421 -0.998478,-2.09347 -0.183054,-0.23299 -0.349468,-0.43268 -0.482598,-0.51588 -0.144945,-0.0907 -0.249619,-0.1058 -0.332826,-0.0741 z"
       id="path6" />
    <path
       inkscape:connector-curvature="0"
       style="fill:#ff0000;stroke-width:0.33919981"
       d="m 12.781135,278.78902 c 2.675923,-0.13745 5.744581,-0.13745 5.744581,-0.13745 0,0 7.385413,0 9.232597,0.51587 1.01512,0.28291 1.807246,1.13162 2.080164,2.2133 0.482598,1.94704 0.482598,5.98254 0.482598,5.98254 0,0 0,4.05716 -0.482598,5.98256 -0.299542,1.08168 -1.065044,1.9254 -2.100133,2.21329 -4.985737,-5.58483 -11.217906,-6.87119 -14.957209,-16.76329 z"
       id="path8" />
    <path
       inkscape:connector-curvature="0"
       style="fill:#ffffff;stroke-width:0.33919981"
       d="m 15.444577,283.63081 6.142307,3.72931 -6.142307,3.72933 z"
       id="path10" />
  </g>
</svg>
