<?xml version="1.0" encoding="UTF-8" standalone="no"?>
<!-- Created with Inkscape (http://www.inkscape.org/) -->

<svg
   xmlns:dc="http://purl.org/dc/elements/1.1/"
   xmlns:cc="http://creativecommons.org/ns#"
   xmlns:rdf="http://www.w3.org/1999/02/22-rdf-syntax-ns#"
   xmlns:svg="http://www.w3.org/2000/svg"
   xmlns="http://www.w3.org/2000/svg"
   xmlns:sodipodi="http://sodipodi.sourceforge.net/DTD/sodipodi-0.dtd"
   xmlns:inkscape="http://www.inkscape.org/namespaces/inkscape"
   width="32mm"
   height="32mm"
   viewBox="0 0 32 32"
   version="1.1"
   id="svg40"
   inkscape:version="0.92.5 (2060ec1f9f, 2020-04-08)"
   sodipodi:docname="icon.svg">
  <defs
     id="defs34" />
  <sodipodi:namedview
     id="base"
     pagecolor="#ffffff"
     bordercolor="#666666"
     borderopacity="1.0"
     inkscape:pageopacity="0.0"
     inkscape:pageshadow="2"
     inkscape:zoom="3.959798"
     inkscape:cx="32.054106"
     inkscape:cy="52.105109"
     inkscape:document-units="mm"
     inkscape:current-layer="layer1"
     showgrid="false"
     inkscape:window-width="1872"
     inkscape:window-height="1022"
     inkscape:window-x="0"
     inkscape:window-y="0"
     inkscape:window-maximized="1"
     inkscape:snap-global="false" />
  <metadata
     id="metadata37">
    <rdf:RDF>
      <cc:Work
         rdf:about="">
        <dc:format>image/svg+xml</dc:format>
        <dc:type
           rdf:resource="http://purl.org/dc/dcmitype/StillImage" />
        <dc:title />
      </cc:Work>
    </rdf:RDF>
  </metadata>
  <g
     inkscape:label="Layer 1"
     inkscape:groupmode="layer"
     id="layer1"
     transform="translate(0,-265)">
    <g
       id="g4523"
       transform="translate(-0.1952327,-0.14366916)">
      <path
         id="path2"
         d="m 6.8319538,280.38262 c 0.2818591,-1.14503 1.1274362,-2.01705 2.2020239,-2.34295 1.9553973,-0.5461 9.7734643,-0.5461 9.7734643,-0.5461 0,0 7.818066,0 9.773464,0.5461 1.074588,0.29949 1.913118,1.19792 2.202024,2.34295 0.51087,2.06112 0.51087,6.33303 0.51087,6.33303 0,0 0,4.29483 -0.51087,6.33303 -0.31709,1.14505 -1.127436,2.03819 -2.223163,2.34294 -1.934259,0.54611 -9.752325,0.54611 -9.752325,0.54611 0,0 -7.818067,0 -9.7734643,-0.54611 -1.0745877,-0.29948 -1.9131184,-1.19789 -2.2231633,-2.32006 -0.5108696,-2.06108 -0.5108696,-6.33301 -0.5108696,-6.33301 0,0 0.020789,-4.29481 0.5461019,-6.35415 z"
         style="fill:#ff0000;stroke-width:0.3590709"
         inkscape:connector-curvature="0" />
      <path
         id="path6"
         d="m 8.1125788,267.02955 c -6.4158173,1.81271 -7.65247413,8.54209 -6.7575716,12.06533 0.898426,0.0576 1.6206901,0.19377 2.2425416,0.40517 -1.5854573,1.26838 0.281859,4.76519 2.0205773,6.53209 0.033471,0.51087 0.1086922,1.02174 0.2466264,1.55022 0.8455775,3.31537 3.4404423,5.45221 5.8151055,4.7828 0.59895,-0.16771 1.127437,-0.49326 1.567841,-0.93365 0.006,-0.006 0.0071,-0.0177 0.01285,-0.024 0.405173,-1.35644 0.440404,-3.0335 0.0042,-4.74931 -0.458021,-1.82505 -1.356448,-3.32771 -2.432796,-4.28074 -0.722265,-0.63418 -1.4973773,-1.02175 -2.2883442,-1.10982 -1.3740628,-1.16268 -2.705847,-2.35881 -3.5866565,-3.75578 -0.4227888,-2.73227 1.9765369,-8.39235 5.3200897,-9.30487 3.329461,-0.89843 5.797491,3.04056 7.821591,5.67242 -0.211396,0.229 -0.369941,0.51087 -0.493254,0.79273 -0.04633,0.11032 -0.08314,0.22901 -0.118204,0.35231 -0.229011,-0.007 -0.440404,0.006 -0.669415,0.0671 -1.928974,0.54611 -2.815067,3.66771 -1.973014,6.98131 0.845576,3.3136 3.091641,5.55086 5.020615,5.00651 1.514992,-0.42278 2.378185,-2.43456 2.281296,-4.8744 0.458022,-0.58133 0.475639,-1.85322 0.05126,-3.22729 0.193779,-0.22901 0.369941,-0.49324 0.475638,-0.77511 0.317092,-0.73988 0.369941,-1.62069 0.137584,-2.51207 -0.229012,-0.89843 -0.70465,-1.6383 -1.321215,-2.12274 -0.616568,-0.47564 -1.409296,-0.70466 -2.202025,-0.47564 -0.02872,0.008 -0.05918,0.0154 -0.0879,0.0255 -0.07521,-1.89374 -0.581334,-3.44749 -1.268365,-4.96953 -3.394641,-1.98534 -5.68827,-2.28305 -9.8245515,-1.10983 z m 13.9256002,11.07178 c -0.02872,0.0687 -0.07029,0.12472 -0.103931,0.19378 -0.722263,-1.76162 -1.916641,-2.88555 -2.742841,-2.59663 -0.352323,-0.26425 -0.704648,-0.45801 -1.074588,-0.58133 2.307722,-3.25372 5.082273,0.96889 3.919603,2.98418 z m -17.870394,1.85498 c 0.1423388,-0.0353 0.3170913,-0.0255 0.5637181,0.0416 0.845577,0.49325 1.4269116,1.12743 1.9659671,1.77923 -0.6165669,0.84557 -0.8455775,1.744 -0.916042,2.99476 -1.0217393,-0.36994 -2.7551725,-4.53265 -1.6030735,-4.81452 z m 12.555061,-2.20907 c 0.246626,-0.0894 0.510869,-0.0255 0.757497,0.12649 0.246625,0.15186 0.493252,0.40516 0.704647,0.72226 0.458021,0.59895 0.863193,1.46215 1.180285,2.48037 0.317091,1.02174 0.440404,1.97125 0.422788,2.75516 -0.01216,0.38757 -0.04157,0.7575 -0.151851,1.03936 -0.110458,0.28186 -0.281859,0.51087 -0.528486,0.61657 -0.246627,0.0894 -0.51087,0.0255 -0.757496,-0.12649 -0.246627,-0.15186 -0.493253,-0.40516 -0.704648,-0.72226 -0.458022,-0.59895 -0.88081,-1.46215 -1.197901,-2.47507 -0.317091,-1.02175 -0.440405,-1.97125 -0.422789,-2.75519 0.01199,-0.38754 0.05919,-0.75749 0.169468,-1.03934 0.110279,-0.28186 0.281858,-0.51088 0.528486,-0.59896 z m -8.101688,2.60721 c -0.2466265,0.0705 -0.4756371,0.17528 -0.7046474,0.29947 1.1450524,-0.0831 2.3094834,0.36994 3.2889434,1.25075 1.180285,1.03935 2.13332,2.65652 2.623051,4.58726 0.317091,1.23313 0.405172,2.46626 0.281859,3.59017 0.616567,-1.35645 0.792728,-3.12159 0.334708,-4.92372 -0.845578,-3.31538 -3.463343,-5.46631 -5.838007,-4.79514 z m 8.307798,-1.9466 c -0.09267,0.0353 -0.174226,0.12807 -0.246628,0.29947 -0.06871,0.17617 -0.115039,0.44042 -0.124723,0.77512 -0.02079,0.65179 0.09918,1.55022 0.387557,2.48563 0.28186,0.93366 0.687032,1.74401 1.056972,2.25312 0.193778,0.24663 0.369939,0.40519 0.528485,0.51086 0.153613,0.096 0.264243,0.11189 0.352325,0.0784 0.09267,-0.0353 0.174223,-0.12806 0.246626,-0.29946 0.06887,-0.17617 0.119966,-0.4228 0.129655,-0.7575 0.02079,-0.6518 -0.121552,-1.56784 -0.405173,-2.49798 -0.281858,-0.93366 -0.669415,-1.70877 -1.056971,-2.21611 -0.193778,-0.24664 -0.369941,-0.45802 -0.51087,-0.5461 -0.153436,-0.096 -0.264242,-0.112 -0.352323,-0.0784 z"
         inkscape:connector-curvature="0"
         style="stroke-width:0.03187298" />
      <path
         sodipodi:nodetypes="ccccccccc"
         id="path8"
         d="m 12.726508,277.64296 c 2.832684,-0.1455 6.081111,-0.1455 6.081111,-0.1455 0,0 7.818067,0 9.773463,0.54609 1.074588,0.29948 1.913118,1.19791 2.202024,2.34296 0.51087,2.0611 0.51087,6.33301 0.51087,6.33301 0,0 0,4.29484 -0.51087,6.33303 -0.31709,1.14505 -1.127436,2.03819 -2.223163,2.34295 -9.153221,-2.97204 -14.013232,-5.20238 -15.833435,-17.74532 z"
         style="fill:#ff0000;stroke-width:0.3590709"
         inkscape:connector-curvature="0" />
      <path
         id="path10"
         d="m 15.54598,282.76839 6.502137,3.94778 -6.502137,3.94781 z"
         style="fill:#ffffff;stroke-width:0.3590709"
         inkscape:connector-curvature="0" />
    </g>
  </g>
</svg>
