<svg xmlns:dc="http://purl.org/dc/elements/1.1/" xmlns:cc="http://creativecommons.org/ns#" xmlns:rdf="http://www.w3.org/1999/02/22-rdf-syntax-ns#" xmlns:svg="http://www.w3.org/2000/svg" xmlns="http://www.w3.org/2000/svg" xmlns:sodipodi="http://sodipodi.sourceforge.net/DTD/sodipodi-0.dtd" xmlns:inkscape="http://www.inkscape.org/namespaces/inkscape" width="350" height="100" id="svg12" sodipodi:docname="logo.svg" inkscape:version="0.92.5 (2060ec1f9f, 2020-04-08)"><defs id="defs16"><filter inkscape:label="Black Light" inkscape:menu="Color" inkscape:menu-tooltip="Light areas turn to black" style="color-interpolation-filters:sRGB" id="filter4582"><feColorMatrix type="luminanceToAlpha" result="result2" id="feColorMatrix4574" /><feComposite in2="SourceGraphic" operator="arithmetic" in="result2" k3="2" result="result4" id="feComposite4576" /><feBlend in="result4" mode="multiply" result="result3" in2="result2" id="feBlend4578" /><feComposite in2="SourceGraphic" operator="in" in="result3" id="feComposite4580" /></filter></defs><sodipodi:namedview pagecolor="#ffffff" bordercolor="#666666" borderopacity="1" objecttolerance="10" gridtolerance="10" guidetolerance="10" inkscape:pageopacity="0" inkscape:pageshadow="2" inkscape:window-width="1670" inkscape:window-height="898" id="namedview14" showgrid="false" inkscape:zoom="2.4324473" inkscape:cx="169.41137" inkscape:cy="61.544435" inkscape:window-x="0" inkscape:window-y="0" inkscape:window-maximized="0" inkscape:current-layer="svg12" /><path d="M20.816 49.44c.802-3.2 3.152-5.618 6.132-6.524 5.444-1.5 27.22-1.5 27.22-1.5s21.775.0 27.22 1.5c2.98.846 5.33 3.322 6.132 6.524 1.433 5.738 1.433 17.638 1.433 17.638s0 11.96-1.433 17.638c-.86 3.2-3.152 5.678-6.2 6.524-5.387 1.5-27.162 1.5-27.162 1.5s-21.775.0-27.22-1.5c-2.98-.846-5.33-3.322-6.2-6.463-1.433-5.738-1.433-17.638-1.433-17.638s.057-11.96 1.5-17.698z" fill="red" id="path2" /><path d="m24 7.228c-17.87 5.047-21.3 23.8-18.82 33.6 2.494.16 4.523.563 6.243 1.126-4.405 3.527.77 13.27 5.626 18.193.093 1.415.304 2.857.674 4.3 2.347 9.23 9.58 15.187 16.195 13.318 1.654-.467 3.125-1.365 4.343-2.616.017-.017.02-.05.036-.066 1.126-3.766 1.226-8.448.01-13.228-1.292-5.083-3.78-9.266-6.774-11.923-2.003-1.777-4.193-2.84-6.373-3.1-3.818-3.235-7.535-6.57-9.986-10.46C14 28.782 20.678 13.008 30 10.472c9.27-2.527 16.146 8.47 21.78 15.797-.573789.6657-1.040995 1.416266-1.385 2.225-.13.308-.232.657-.33.982-.62-.02-1.245.018-1.85.2-5.373 1.517-7.84 10.213-5.494 19.444 2.346 9.231 8.6 15.46 13.982 13.943 4.204-1.188 6.622-6.78 6.354-13.575 1.277-1.628 1.325-5.16.14-8.986.543-.646 1.02-1.373 1.35-2.16.862-2.058 1.015-4.5.382-6.998-.633-2.498-1.94-4.583-3.664-5.9-1.724-1.317-3.92-1.95-6.135-1.323-.08.023-.166.043-.246.07-.2-5.274-1.6-9.602-3.52-13.843C41.908 4.818 35.52 3.988 24.004 7.24zM62.792 38.06c-.08.2-.197.35-.288.526-2.023-4.896-5.34-8.036-7.638-7.234-.973-.73-1.976-1.3-3-1.6C58.3 20.7 66.03 32.432 62.8 38.06zm-49.768 5.166c.397-.097.902-.073 1.558.116 2.367 1.373 3.977 3.13 5.477 4.955-1.714 2.342-2.345 4.868-2.572 8.34-2.847-1.034-7.672-12.62-4.463-13.4zm34.968-6.154c.67-.25 1.412-.072 2.093.353.681.425 1.355 1.152 1.983 1.996 1.257 1.688 2.417 4.084 3.285 6.907.868 2.823 1.228 5.5 1.16 7.674-.034 1.092-.117 2.103-.423 2.898-.306.795-.798 1.442-1.468 1.693-.67.251-1.412.072-2.093-.353-.681-.425-1.355-1.152-1.983-1.996-1.257-1.688-2.467-4.07-3.334-6.893-.867-2.823-1.228-5.5-1.16-7.674.034-1.092.166-2.117.472-2.912.306-.795.798-1.442 1.468-1.693zm-22.56 7.262c-.679983.200572-1.334623.478736-1.951.829 3.188-.23 6.43 1.05 9.16 3.47 3.285 2.915 5.94 7.398 7.306 12.773.876 3.448 1.132 6.87.802 9.998 1.732-3.773 2.22-8.693.942-13.713-2.347-9.23-9.643-15.224-16.258-13.356zm23.134-5.423c-.26.097-.485.358-.678.858-.193.5-.32 1.24-.348 2.154-.056 1.826.275 4.32 1.074 6.92.799 2.6 1.915 4.864 2.966 6.275.526.706 1.04 1.152 1.468 1.42.428.268.745.313 1.004.217.259-.096.485-.358.678-.858.193-.5.333-1.2.362-2.103.056-1.826-.337-4.358-1.136-6.958-.799-2.6-1.888-4.76-2.94-6.17C50.5 39.96 50 39.396 49.57 39.13 49.14 38.864 48.825 38.817 48.566 38.913z" id="path4" inkscape:connector-curvature="0" sodipodi:nodetypes="cccccccccccccccccsccccssccccccccccccccccccscscssscscsccccccccccscscssscscscc" /><path d="M37.232 41.8c7.9-.404 16.935-.404 16.935-.404s21.775.0 27.22 1.5c2.98.846 5.33 3.322 6.132 6.524 1.433 5.738 1.433 17.638 1.433 17.638s0 11.96-1.433 17.638c-.86 3.2-3.152 5.678-6.2 6.524-14.7-16.467-33.073-20.255-44.097-49.42z" fill="red" id="path6" /><path d="M45.084 56.084l18.108 10.993L45.084 78.07z" fill="#fff" id="path8" /><g id="g4641"><path d="m104.83615 45.183516 4.60289 19.551041 4.58197-19.551041h6.71605l-8.18061 27.742149v15.784327h-6.23483V72.925665L98.141029 45.183516z" style="font-style:normal;font-variant:normal;font-weight:700;font-stretch:normal;font-size:51.21889877px;line-height:125%;font-family:roboto condensed;-inkscape-font-specification:'Roboto Condensed, Bold';font-variant-ligatures:normal;font-variant-caps:normal;font-variant-numeric:normal;font-feature-settings:normal;text-align:start;letter-spacing:0;word-spacing:0;writing-mode:lr-tb;text-anchor:start;fill:#000;fill-opacity:1;stroke:none;stroke-width:1.28046596px;stroke-linecap:butt;stroke-linejoin:miter;stroke-opacity:1" id="path4588" inkscape:connector-curvature="0" /><path d="m119.34735 71.490726q0-7.623112 2.8011-11.658878 2.82483-4.065659 7.57244-4.065659 4.79509.0 7.59619 4.065659 2.82483 4.035766 2.82483 11.658878v2.122514q0 7.623113-2.82483 11.658877-2.8011 4.035766-7.5487 4.035766-4.77136.0-7.59619-4.035766-2.82484-4.035764-2.82484-11.658877zm6.71788 2.122514q0 8.669423 3.70315 8.669423 3.53696.0 3.65566-8.13132v-2.660617q0-8.699316-3.70315-8.699316-3.53697.0-3.65566 8.161214z" style="font-style:normal;font-variant:normal;font-weight:700;font-stretch:normal;font-size:51.21889877px;line-height:125%;font-family:roboto condensed;-inkscape-font-specification:'Roboto Condensed, Bold';font-variant-ligatures:normal;font-variant-caps:normal;font-variant-numeric:normal;font-feature-settings:normal;text-align:start;letter-spacing:0;word-spacing:0;writing-mode:lr-tb;text-anchor:start;fill:#000;fill-opacity:1;stroke:none;stroke-width:1.36391234px;stroke-linecap:butt;stroke-linejoin:miter;stroke-opacity:1" id="path4590" inkscape:connector-curvature="0" /><path d="m155.86683 88.709992-.16418-2.989456q-2.06392 3.587347-5.55853 3.587347-3.1428.0-5.1129-2.810088-1.97012-2.810089-1.97012-9.207525V56.36408h6.6374v20.92619q0 4.932603 2.43918 4.932603 2.29847.0 3.30697-2.511143V56.36408h6.66086v32.345912z" style="font-style:normal;font-variant:normal;font-weight:700;font-stretch:normal;font-size:51.21889877px;line-height:125%;font-family:roboto condensed;-inkscape-font-specification:'Roboto Condensed, Bold';font-variant-ligatures:normal;font-variant-caps:normal;font-variant-numeric:normal;font-feature-settings:normal;text-align:start;letter-spacing:0;word-spacing:0;writing-mode:lr-tb;text-anchor:start;fill:#000;fill-opacity:1;stroke:none;stroke-width:1.35571873px;stroke-linecap:butt;stroke-linejoin:miter;stroke-opacity:1" id="path4592" inkscape:connector-curvature="0" /><path d="m159.7148 52.507682v-7.324166h21.11055v7.324166h-7.55293v36.20231h-6.15114v-36.20231z" style="font-style:normal;font-variant:normal;font-weight:700;font-stretch:normal;font-size:51.21889877px;line-height:125%;font-family:roboto condensed;-inkscape-font-specification:'Roboto Condensed, Bold';font-variant-ligatures:normal;font-variant-caps:normal;font-variant-numeric:normal;font-feature-settings:normal;text-align:start;letter-spacing:0;word-spacing:0;writing-mode:lr-tb;text-anchor:start;fill:#000;fill-opacity:1;stroke:none;stroke-width:1.28046596px;stroke-linecap:butt;stroke-linejoin:miter;stroke-opacity:1" id="path4594" inkscape:connector-curvature="0" /><path d="m223.22121 73.583345q0 7.862269-2.07479 11.808351-2.07482 3.916187-6.22441 3.916187-3.38646.0-5.36587-3.796609l-.21463 3.198718H203.1171V42.79195h6.72522v16.202851q1.93171-3.228612 5.03199-3.228612 4.34039.0 6.31979 3.946081 2.00326 3.916187 2.02711 11.5393zM212.9426 62.821305q-2.14635.0-3.10028 2.421459v14.738017q.93008 2.271986 3.14797 2.271986 2.2179.0 2.8618-1.973041.6439-1.973041.6439-6.696381v-2.122513q0-4.394501-.66775-6.517014-.6439-2.122513-2.88564-2.122513z" style="font-style:normal;font-variant:normal;font-weight:700;font-stretch:normal;font-size:51.21889877px;line-height:125%;font-family:roboto condensed;-inkscape-font-specification:'Roboto Condensed, Bold';font-variant-ligatures:normal;font-variant-caps:normal;font-variant-numeric:normal;font-feature-settings:normal;text-align:start;letter-spacing:0;word-spacing:0;writing-mode:lr-tb;text-anchor:start;fill:#000;fill-opacity:1;stroke:none;stroke-width:1.36707532px;stroke-linecap:butt;stroke-linejoin:miter;stroke-opacity:1" id="path4598" inkscape:connector-curvature="0" /><path style="font-style:normal;font-variant:normal;font-weight:700;font-stretch:normal;font-size:51.21889877px;line-height:125%;font-family:roboto condensed;-inkscape-font-specification:'Roboto Condensed, Bold';font-variant-ligatures:normal;font-variant-caps:normal;font-variant-numeric:normal;font-feature-settings:normal;text-align:start;letter-spacing:0;word-spacing:0;writing-mode:lr-tb;text-anchor:start;fill:#000;fill-opacity:1;stroke:none;stroke-width:1.32699323px;stroke-linecap:butt;stroke-linejoin:miter;stroke-opacity:1" d="m237.06055 55.765625c-3.05598.0-5.44524 1.355967-7.16797 4.066406-1.44716 2.279962-2.27527 5.485817-2.4961 9.597657h-.0664v2.300781 1.316406 2.300781h.0684c.22099 4.110822 1.04723 7.316132 2.49414 9.595703 1.72273 2.71044 4.11199 4.066407 7.16797 4.066407 3.05596.0 5.35547-1.284537 6.89843-3.855469.82019-1.366605 1.41282-3.118926 1.80469-5.212891h-6.14453c-.0735.184036-.15359.352079-.24414.548828-.4494.996486-1.22935 1.494141-2.33789 1.494141-1.10855.0-1.91646-.52771-2.42578-1.583984-.49435-1.036346-.78708-2.720959-.87695-5.052735h5.12304 1.23633 6.17969c.10535-.458225.0449-1.217296.0449-1.763672v-2.392578-1.761718h-.0449c-.18383-4.267975-.95347-7.538927-2.31446-9.806641-1.54296-2.570933-3.84247-3.857422-6.89843-3.857422zm-.0234 7.025391c1.10854.0 1.88849.499608 2.33789 1.496093.44942.976556.6888 2.439466.71875 4.392579v.748046h-6.35937c.0899-2.331775.3826-4.016389.87695-5.052734.50932-1.056274 1.31723-1.583984 2.42578-1.583984z" id="path4600" inkscape:connector-curvature="0" /><path d="m272.4663 74.181237h6.15115q-.20923 7.41385-2.92911 11.270248-2.7199 3.856398-7.61571 3.856398-5.02134.0-7.804-4.693446-2.78265-4.693446-2.84542-13.542234v-7.802479q0-9.117841 2.86634-13.90097 2.88728-4.813024 7.86677-4.813024 4.9795.0 7.57385 4.00587 2.59437 3.975977 2.92912 11.389827h-6.15114q-.10461-4.663551-1.02519-6.36754-.92058-1.733886-3.32664-1.733886-2.36421.0-3.45217 2.42146-1.08796 2.421459-1.1298 8.460159v7.922059q0 6.158279.9415 8.759106.9415 2.600825 3.55678 2.600825 2.28053.0 3.2848-1.554516 1.00426-1.554517 1.10887-6.277857z" style="font-style:normal;font-variant:normal;font-weight:700;font-stretch:normal;font-size:51.21889877px;line-height:125%;font-family:roboto condensed;-inkscape-font-specification:'Roboto Condensed, Bold';font-variant-ligatures:normal;font-variant-caps:normal;font-variant-numeric:normal;font-feature-settings:normal;text-align:start;letter-spacing:0;word-spacing:0;writing-mode:lr-tb;text-anchor:start;fill:#000;fill-opacity:1;stroke:none;stroke-width:1.28046596px;stroke-linecap:butt;stroke-linejoin:miter;stroke-opacity:1" id="path4602" inkscape:connector-curvature="0" /><path d="m292.86551 88.709992q-.31384-1.016415-.50214-2.511143-1.61101 3.109034-4.30998 3.109034-2.74081.0-4.66566-2.630721-1.90393-2.630721-1.90393-7.025222.0-4.932601 2.21776-7.802479 2.21775-2.899772 6.77881-2.899772h1.59009v-2.600827q0-3.975975-2.05038-3.975975-2.21776.0-2.21776 3.706925h-5.921q0-4.245027 2.23868-7.264378 2.25961-3.049245 6.06746-3.049245 3.36848.0 5.58624 2.511142 2.23868 2.511144 2.23868 8.19111v15.186436q.0418 4.304816.81597 6.546908v.508207zm-3.4731-6.068596q.96242.0 1.65286-.567996.69043-.567996 1.02519-1.345255v-6.726276h-1.40179q-1.67378.0-2.46883 1.464834-.79504 1.464833-.79504 3.587347.0 3.587346 1.98761 3.587346z" style="font-style:normal;font-variant:normal;font-weight:700;font-stretch:normal;font-size:51.21889877px;line-height:125%;font-family:roboto condensed;-inkscape-font-specification:'Roboto Condensed, Bold';font-variant-ligatures:normal;font-variant-caps:normal;font-variant-numeric:normal;font-feature-settings:normal;text-align:start;letter-spacing:0;word-spacing:0;writing-mode:lr-tb;text-anchor:start;fill:#000;fill-opacity:1;stroke:none;stroke-width:1.28046596px;stroke-linecap:butt;stroke-linejoin:miter;stroke-opacity:1" id="path4604" inkscape:connector-curvature="0" /><path d="m312.32319 80.04057q0-1.255571-.89966-2.212197-.89965-.956626-3.0128-2.271987-3.09649-1.733884-4.77027-3.946081-1.65286-2.212198-1.65286-6.09849.0-4.035765 2.07131-6.875749 2.0713-2.869877 5.75361-2.869877 3.80785.0 6.00469 2.810089 2.19683 2.780193 2.19683 7.324167h-5.92099q0-3.975977-2.30145-3.975977-2.13407.0-2.13407 3.168823.0 1.255571.81596 2.122514.8369.866942 3.01281 2.152408 3.38941 1.823568 4.9795 4.06566 1.61101 2.242091 1.61101 6.247963.0 4.304815-2.23868 6.965432-2.23868 2.660615-6.02561 2.660615-4.10076.0-6.27667-3.318296-2.155-3.348191-2.155-7.294272h5.60717q.0418 2.630721.85781 3.527558.81597.896837 2.09223.896837 2.38513.0 2.38513-3.07914z" style="font-style:normal;font-variant:normal;font-weight:700;font-stretch:normal;font-size:51.21889877px;line-height:125%;font-family:roboto condensed;-inkscape-font-specification:'Roboto Condensed, Bold';font-variant-ligatures:normal;font-variant-caps:normal;font-variant-numeric:normal;font-feature-settings:normal;text-align:start;letter-spacing:0;word-spacing:0;writing-mode:lr-tb;text-anchor:start;fill:#000;fill-opacity:1;stroke:none;stroke-width:1.28046596px;stroke-linecap:butt;stroke-linejoin:miter;stroke-opacity:1" id="path4606" inkscape:connector-curvature="0" /><path d="m331.80181 88.50073q-1.44364.807153-3.2848.807153-2.63621.0-4.20538-2.212197-1.56916-2.212198-1.56916-7.383956V62.73162h-2.6362v-6.36754h2.6362v-7.981847h5.90007v7.981847h3.03373v6.36754h-3.03373v16.053379q0 2.032829.39753 2.690509.41844.657681 1.38087.657681.81596.0 1.40178-.239156z" style="font-style:normal;font-variant:normal;font-weight:700;font-stretch:normal;font-size:51.21889877px;line-height:125%;font-family:roboto condensed;-inkscape-font-specification:'Roboto Condensed, Bold';font-variant-ligatures:normal;font-variant-caps:normal;font-variant-numeric:normal;font-feature-settings:normal;text-align:start;letter-spacing:0;word-spacing:0;writing-mode:lr-tb;text-anchor:start;fill:#000;fill-opacity:1;stroke:none;stroke-width:1.28046596px;stroke-linecap:butt;stroke-linejoin:miter;stroke-opacity:1" id="path4608" inkscape:connector-curvature="0" /><path inkscape:connector-curvature="0" id="path4611" style="font-style:normal;font-variant:normal;font-weight:700;font-stretch:normal;font-size:51.21889877px;line-height:125%;font-family:roboto condensed;-inkscape-font-specification:'Roboto Condensed, Bold';font-variant-ligatures:normal;font-variant-caps:normal;font-variant-numeric:normal;font-feature-settings:normal;text-align:start;letter-spacing:0;word-spacing:0;writing-mode:lr-tb;text-anchor:start;fill:#000;fill-opacity:1;stroke:none;stroke-width:1.35571873px;stroke-linecap:butt;stroke-linejoin:miter;stroke-opacity:1" d="m192.66104 88.709992-.16418-2.989456q-2.06392 3.587347-5.55852 3.587347-3.1428.0-5.11291-2.810088-1.97011-2.810089-1.97011-9.207525V56.36408h6.6374v20.92619q0 4.932603 2.43918 4.932603 2.29847.0 3.30697-2.511143V56.36408h6.66086v32.345912z" /></g></svg>